<?xml version="1.0"?><svg width="640" height="480" xmlns="http://www.w3.org/2000/svg">
 <title>shopping cart</title>
 <metadata id="metadata7">image/svg+xmlshopping cartcartsupermarketshoppingshopping cartSergio Luiz Araujo Silva</metadata>
 <g>
  <title>Layer 1</title>
  <g id="layer1">
   <path fill="#1687a9" stroke-width="15.5" id="path3847" d="m556.674927,5.913887c-0.736694,0.01048 -1.493103,0.075346 -2.216614,0.204684c-0.013123,0.002618 -0.027527,-0.002622 -0.04071,0l-73.044952,12.44872c-4.646027,0.795406 -8.540863,3.974295 -10.259766,8.353756a3.321054,3.314034 0 0 00,0.040888l-33.895538,86.731188l-330.794846,8.23188c-3.80426,0.09433 -7.376076,1.808327 -9.848763,4.66761c-2.474007,2.859291 -3.663734,6.660713 -3.201508,10.442513l18.260918,150.735687c0.753761,6.323975 5.989365,11.338837 12.352966,11.834167l235.835785,18.715027l46.740845,36.690979a3.321054,3.314034 0 0 00.164154,0.121826c0.049896,0.035431 0.112946,0.048523 0.164154,0.082581c0.05777,0.037994 0.106354,0.085205 0.164154,0.121887c8.530304,6.354065 10.644531,15.010529 9.439087,19.819672c-0.686829,2.741364 -1.736053,4.755371 -4.227142,6.306915c-2.491028,1.551514 -6.794312,2.6745 -14.157227,2.252563a3.321054,3.314034 0 0 0-0.082764,0c-0.236359,-0.007874 -0.502899,-0.005249 -0.739288,0c-0.039398,0 -0.084015,-0.001312 -0.123444,0l-281.263489,0.819031l-0.04071,0c-7.391815,-0.047211 -13.612297,6.13916 -13.583405,13.512726c0.0289,7.374908 6.274315,13.537628 13.664841,13.431488c0.014435,0 0.027565,0 0.040688,0l20.56028,-0.040619c-7.640015,4.858948 -12.76268,13.359467 -12.76268,23.014435c0,15.014496 12.324097,27.3125 27.371658,27.3125c15.04628,0 27.370392,-12.298004 27.370392,-27.3125c0,-9.707367 -5.135834,-18.291748 -12.844116,-23.137604l231.609985,-0.655182c-8.343872,4.69516 -14.033844,13.607117 -14.033844,23.792786c0,15.014496 12.324097,27.3125 27.370392,27.3125c15.047577,0 27.371643,-12.298004 27.371643,-27.3125c0,-13.041016 -9.282745,-24.033905 -21.584564,-26.699219c11.630768,-4.106781 20.565552,-12.573242 26.099243,-25.512024a3.321054,3.314034 0 0 00.204865,-0.491394c4.241516,-16.926392 -3.281616,-35.326874 -18.79538,-47.297333a3.321054,3.314034 0 0 0-0.123474,-0.123169c-0.038055,-0.028809 -0.044617,-0.093018 -0.08136,-0.121826a3.321054,3.314034 0 0 0-0.450439,-0.450775l-33.116791,-25.920898l103.288574,-264.00349l65.534882,-11.138336c0.013184,-0.002617 0.028931,0.002621 0.04071,0c6.88501,-1.104528 11.919678,-7.507502 11.326111,-14.45533c-0.593506,-6.961061 -6.672241,-12.420682 -13.664856,-12.325809l0.001343,0zm-129.429779,128.581703l-19.040955,48.73085l-24.826721,0l0,-47.624893l43.867676,-1.105957zm-53.347443,1.352325l0,47.378525l-45.837433,0l0,-46.231949l45.837433,-1.146576zm-55.3172,1.350998l0,46.027527l-45.837433,0l0,-44.88092l45.837433,-1.146606zm-55.3172,1.391647l0,44.63588l-45.837433,0l0,-43.489273l45.837433,-1.146606zm-55.317184,1.392944l0,43.242935l-45.837448,0l0,-42.096359l45.837448,-1.146576zm-55.3172,1.351013l0,41.891922l-33.609207,0l-4.965096,-40.909134l38.574303,-0.982788zm-32.460182,51.309723l32.460182,0l0,42.793457l-27.288925,0l-5.171257,-42.793457zm41.939934,0l45.837448,0l0,42.793457l-45.837448,0l0,-42.793457zm55.3172,0l45.837433,0l0,42.793457l-45.837433,0l0,-42.793457zm55.3172,0l45.837433,0l0,42.793457l-45.837433,0l0,-42.793457zm55.3172,0l45.837433,0l0,42.793457l-45.837433,0l0,-42.793457zm55.3172,0l21.174835,0l-16.742889,42.793457l-4.431946,0l0,-42.793457zm-256.888458,52.211258l26.139908,0l0,30.712952l-22.652145,-1.801758l-3.487762,-28.911194zm35.619659,0l45.837448,0l0,35.093597l-45.837448,-3.644196l0,-31.449402zm55.3172,0l45.837433,0l0,39.475525l-45.837433,-3.603577l0,-35.871948zm55.3172,0l45.837433,0l0,43.898132l-45.837433,-3.644196l0,-40.253937zm55.3172,0l45.837433,0l0,26.044006l-8.699738,22.236084c-1.129303,-0.546448 -2.361084,-0.881897 -3.611176,-0.982788l-33.52652,-2.661407l0,-44.635895zm55.3172,0l0.697266,0l-0.697266,1.924973l0,-1.924973zm-232.225861,173.545685c8.944,0 16.086304,7.127258 16.086304,16.052307c0,8.92511 -7.142303,16.010345 -16.086304,16.010345c-8.943985,0 -16.086304,-7.085236 -16.086304,-16.010345c0,-8.925049 7.142319,-16.052307 16.086304,-16.052307zm259.474091,0c8.944,0 16.086304,7.127258 16.086304,16.052307c0,8.92511 -7.142303,16.010345 -16.086304,16.010345c-8.94397,0 -16.086304,-7.085236 -16.086304,-16.010345c0,-8.925049 7.142334,-16.052307 16.086304,-16.052307zm-259.474091,7.615997c-4.858688,0 -8.740448,3.873535 -8.740448,8.721985c0,4.849792 3.88176,8.681335 8.740448,8.681335c4.858734,0 8.740448,-3.831543 8.740448,-8.681335c0,-4.84845 -3.881714,-8.721985 -8.740448,-8.721985zm259.474091,0c-4.858673,0 -8.740417,3.873535 -8.740417,8.721985c0,4.849792 3.881744,8.681335 8.740417,8.681335c4.858734,0 8.740448,-3.831543 8.740448,-8.681335c0,-4.84845 -3.881714,-8.721985 -8.740448,-8.721985z"/>
  </g>
 </g>
</svg>